<svg width="31" height="23" viewBox="0 0 31 23" fill="none" xmlns="http://www.w3.org/2000/svg">
<path d="M28.8132 4.8027C28.6615 4.19676 28.3526 3.64156 27.9177 3.1932C27.4828 2.74484 26.9373 2.41919 26.3362 2.24914C24.1401 1.71289 15.3559 1.71289 15.3559 1.71289C15.3559 1.71289 6.57162 1.71289 4.37555 2.30021C3.77451 2.47026 3.22897 2.79591 2.79406 3.24427C2.35915 3.69263 2.05026 4.24783 1.8986 4.85378C1.49668 7.08247 1.30009 9.34334 1.31128 11.608C1.29695 13.8896 1.49356 16.1677 1.8986 18.4132C2.0658 19.0003 2.38161 19.5344 2.81551 19.9638C3.24941 20.3933 3.78673 20.7035 4.37555 20.8646C6.57162 21.4519 15.3559 21.4519 15.3559 21.4519C15.3559 21.4519 24.1401 21.4519 26.3362 20.8646C26.9373 20.6946 27.4828 20.3689 27.9177 19.9206C28.3526 19.4722 28.6615 18.917 28.8132 18.3111C29.212 16.0991 29.4086 13.8555 29.4005 11.608C29.4148 9.32629 29.2182 7.04818 28.8132 4.8027V4.8027Z" stroke="white" stroke-width="2" stroke-linecap="round" stroke-linejoin="round"/>
<path d="M12.4829 15.7828L19.8244 11.6077L12.4829 7.43262V15.7828Z" stroke="white" stroke-width="2" stroke-linecap="round" stroke-linejoin="round"/>
</svg>
