<svg width="22" height="23" viewBox="0 0 22 23" fill="none" xmlns="http://www.w3.org/2000/svg">
<path d="M15.8043 1.71289H5.93476C3.20937 1.71289 1 3.92226 1 6.64765V16.5172C1 19.2426 3.20937 21.4519 5.93476 21.4519H15.8043C18.5297 21.4519 20.7391 19.2426 20.7391 16.5172V6.64765C20.7391 3.92226 18.5297 1.71289 15.8043 1.71289Z" stroke="white" stroke-width="2" stroke-linecap="round" stroke-linejoin="round"/>
<path d="M14.8173 10.9605C14.9391 11.7819 14.7988 12.6208 14.4163 13.3579C14.0339 14.0949 13.4288 14.6926 12.6871 15.0659C11.9454 15.4393 11.1048 15.5692 10.285 15.4373C9.46516 15.3054 8.70781 14.9183 8.12065 14.3311C7.53349 13.744 7.14642 12.9866 7.0145 12.1668C6.88258 11.347 7.01252 10.5064 7.38585 9.76472C7.75917 9.023 8.35687 8.41789 9.09393 8.03544C9.83098 7.653 10.6699 7.5127 11.4912 7.6345C12.3291 7.75874 13.1048 8.14916 13.7037 8.74809C14.3026 9.34701 14.693 10.1227 14.8173 10.9605Z" stroke="white" stroke-width="2" stroke-linecap="round" stroke-linejoin="round"/>
<path d="M16.2976 6.1543H16.3106" stroke="white" stroke-width="2" stroke-linecap="round" stroke-linejoin="round"/>
</svg>
