<svg width="52" height="70" viewBox="0 0 52 70" fill="none" xmlns="http://www.w3.org/2000/svg">
<path fill-rule="evenodd" clip-rule="evenodd" d="M19.8119 0C21.1945 0 22.3153 1.1213 22.3153 2.5045V7.67612H29.5919V2.5045C29.5919 1.1213 30.7127 0 32.0953 0C33.4779 0 34.5987 1.1213 34.5987 2.5045V7.67612H39.4654C40.0359 7.67612 40.6009 7.78847 41.128 8.0068C41.6552 8.22513 42.1343 8.54518 42.5379 8.94875C42.9415 9.35232 43.2618 9.83151 43.4803 10.359C43.6988 10.8865 43.8113 11.4519 43.8113 12.0229V15.3522H48.985C50.3676 15.3522 51.4885 16.4735 51.4885 17.8567C51.4885 19.2399 50.3676 20.3612 48.985 20.3612H43.8113V32.2397H48.985C50.3676 32.2397 51.4885 33.361 51.4885 34.7442C51.4885 36.1274 50.3676 37.2487 48.985 37.2487H43.8113V49.1272H48.985C50.3676 49.1272 51.4885 50.2485 51.4885 51.6316C51.4885 53.0148 50.3676 54.1361 48.985 54.1361H43.8113V57.4655C43.8113 58.0365 43.6988 58.6019 43.4803 59.1294C43.2618 59.6569 42.9415 60.1361 42.5379 60.5396C42.1343 60.9432 41.6552 61.2632 41.128 61.4816C40.6009 61.6999 40.0359 61.8123 39.4654 61.8123H34.5987V66.9839C34.5987 68.3671 33.4779 69.4884 32.0953 69.4884C30.7127 69.4884 29.5919 68.3671 29.5919 66.9839V61.8123H22.3153V66.9839C22.3153 68.3671 21.1945 69.4884 19.8119 69.4884C18.4293 69.4884 17.3084 68.3671 17.3084 66.9839V61.8123H12.4418C11.2896 61.8123 10.1844 61.3546 9.36925 60.5396C8.55407 59.7246 8.09586 58.6188 8.09586 57.4655V54.1361H2.92212C1.53952 54.1361 0.418701 53.0148 0.418701 51.6316C0.418701 50.2485 1.53952 49.1272 2.92212 49.1272H8.09586V37.2487H2.92212C1.53952 37.2487 0.418701 36.1274 0.418701 34.7442C0.418701 33.361 1.53952 32.2397 2.92212 32.2397H8.09586V20.3612H2.92212C1.53952 20.3612 0.418701 19.2399 0.418701 17.8567C0.418701 16.4735 1.53952 15.3522 2.92212 15.3522H8.09586V12.0229C8.09586 10.8696 8.55407 9.76382 9.36925 8.94875C10.1844 8.13373 11.2896 7.67612 12.4418 7.67612H17.3084V2.5045C17.3084 1.1213 18.4293 0 19.8119 0ZM13.1027 12.6851V56.8033H38.8045V12.6851H13.1027Z" fill="white"/>
</svg>
