<svg width="50" height="55" viewBox="0 0 50 55" fill="none" xmlns="http://www.w3.org/2000/svg">
<path d="M47.1489 6.94258L26.0367 0.663804C25.5645 0.525505 25.0663 0.498265 24.5816 0.584247C24.0969 0.670229 23.6391 0.867065 23.2446 1.15912C22.8501 1.45117 22.5297 1.8304 22.3089 2.26668C22.0881 2.70296 21.9729 3.18427 21.9726 3.67239V29.8863C19.4046 28.2595 16.3634 27.5265 13.3286 27.8027C10.2939 28.0789 7.43818 29.3487 5.21192 31.4118C2.98566 33.475 1.51549 36.214 1.03326 39.1971C0.551033 42.1802 1.08418 45.2375 2.54863 47.8869C4.01307 50.5364 6.32549 52.6272 9.12122 53.8297C11.917 55.0322 15.0369 55.2779 17.9891 54.5281C20.9413 53.7783 23.5577 52.0757 25.4258 49.6887C27.2939 47.3017 28.3073 44.3662 28.3063 41.3451V20.442L45.3544 25.5173C45.8266 25.6556 46.3248 25.6829 46.8095 25.5969C47.2942 25.5109 47.752 25.3141 48.1465 25.022C48.541 24.7299 48.8614 24.3507 49.0822 23.9144C49.303 23.4782 49.4182 22.9968 49.4185 22.5087V9.95117C49.418 9.27413 49.1968 8.61539 48.7878 8.07319C48.3788 7.531 47.8039 7.13441 47.1489 6.94258V6.94258ZM14.5833 48.6703C13.1219 48.6703 11.6932 48.2407 10.4781 47.4358C9.26289 46.6309 8.31579 45.4868 7.75651 44.1483C7.19724 42.8098 7.0509 41.3369 7.33602 39.916C7.62114 38.495 8.3249 37.1898 9.35831 36.1653C10.3917 35.1409 11.7084 34.4432 13.1417 34.1606C14.5751 33.8779 16.0609 34.023 17.4111 34.5774C18.7613 35.1319 19.9153 36.0708 20.7273 37.2754C21.5392 38.48 21.9726 39.8963 21.9726 41.3451C21.9656 43.2857 21.1849 45.1449 19.8006 46.5172C18.4164 47.8894 16.5409 48.6634 14.5833 48.6703V48.6703ZM43.0848 18.2967L28.3063 13.9016V7.8844L43.0848 12.2795V18.2967Z" fill="white"/>
</svg>
