<svg width="70" height="50" viewBox="0 0 70 50" fill="none" xmlns="http://www.w3.org/2000/svg">
<path d="M38.5256 0.046875C24.7954 0.046875 24.7954 49.4422 38.5256 49.4422C52.2558 49.4422 69.4186 40.1806 69.4186 24.7445C69.4186 9.3085 52.2558 0.046875 38.5256 0.046875ZM38.8689 42.5818C37.4958 41.2097 35.093 35.0352 35.093 24.7445C35.093 14.4538 37.4958 8.27943 38.8689 6.90734C48.8233 7.25036 62.5535 13.4248 62.5535 24.7445C62.5535 36.0643 48.8233 42.2387 38.8689 42.5818ZM0.767456 0.732921H26.5116C25.8251 2.10501 24.7954 3.47711 24.4521 5.53525C24.1088 6.22129 24.1089 6.90734 23.7656 7.59339H0.767456V0.732921ZM21.3628 21.3143H0.767456V14.4538H22.0493C21.7061 16.512 21.7061 18.9132 21.3628 21.3143M23.7656 41.8957C24.4521 44.6399 25.4819 46.698 26.8549 48.7562H1.11071V41.8957H23.7656ZM22.0493 35.0352H0.767456V28.1748H21.3628C21.7061 30.5759 21.7061 32.9771 22.0493 35.0352Z" fill="white"/>
</svg>
