<svg width="44" height="57" viewBox="0 0 44 57" fill="none" xmlns="http://www.w3.org/2000/svg">
<path d="M22.4077 1.08704L22.1859 0.977265L21.9642 1.08704L1.45252 11.2392L1.17432 11.3769V11.6873V35.5748C1.17432 41.1133 3.38883 46.4243 7.32963 50.3396C11.2703 54.2548 16.6144 56.4538 22.1859 56.4538C27.7575 56.4538 33.1016 54.2548 37.0423 50.3396C40.9831 46.4243 43.1976 41.1133 43.1976 35.5748V11.6873V11.3769L42.9194 11.2392L22.4077 1.08704ZM36.7037 43.5182C35.9169 44.9194 34.9288 46.1996 33.77 47.3184L22.4077 41.6955L21.6859 41.3383V42.1436V45.9273V46.2377L21.9641 46.3754L29.7071 50.2081C27.4009 51.3721 24.8483 51.9865 22.2525 51.9963C19.3386 52.0074 16.4732 51.2561 13.9445 49.8183C11.4158 48.3805 9.31301 46.307 7.84715 43.8064C6.38146 41.3061 5.60409 38.4668 5.59292 35.5738V14.0899L22.1859 5.87675L38.779 14.0899V19.3426L22.4077 11.2392L21.6859 10.8819V11.6873V15.471V15.7814L21.9641 15.9191L38.779 24.242V29.4947L22.4077 21.3913L21.6859 21.034V21.8394V25.6231V25.9335L21.9641 26.0712L38.779 34.3942V35.5748V35.5751C38.7796 36.8703 38.6251 38.1604 38.319 39.418L22.4077 31.5434L21.6859 31.1862V31.9915V35.7752V36.0856L21.9642 36.2233L36.7037 43.5182Z" fill="white" stroke="white"/>
</svg>
