<svg width="57" height="54" viewBox="0 0 57 54" fill="none" xmlns="http://www.w3.org/2000/svg">
<path d="M18.0135 43.7531L28.4994 37.4791L38.9852 43.8357L36.2389 31.948L45.4765 24.0229L33.3262 22.9497L28.4994 11.7225L23.6726 22.8672L11.5223 23.9404L20.7598 31.948L18.0135 43.7531ZM28.4994 45.2391L14.6847 53.4944C14.0744 53.8796 13.4364 54.0447 12.7706 53.9897C12.1048 53.9346 11.5223 53.7145 11.023 53.3293C10.5236 52.944 10.1353 52.463 9.85786 51.8862C9.58046 51.3073 9.52498 50.66 9.69142 49.9446L13.3531 34.3421L1.11965 23.8578C0.564848 23.3625 0.218648 22.7978 0.0810563 22.1638C-0.058755 21.532 -0.0176995 20.9134 0.204223 20.308C0.426146 19.7027 0.75903 19.2073 1.20288 18.8221C1.64672 18.4368 2.25701 18.1892 3.03374 18.0791L19.1786 16.6757L25.4202 1.98127C25.6976 1.32085 26.1281 0.825531 26.7118 0.495318C27.2932 0.165106 27.8891 0 28.4994 0C29.1097 0 29.7066 0.165106 30.2903 0.495318C30.8717 0.825531 31.3011 1.32085 31.5786 1.98127L37.8201 16.6757L53.965 18.0791C54.7417 18.1892 55.352 18.4368 55.7959 18.8221C56.2397 19.2073 56.5726 19.7027 56.7945 20.308C57.0164 20.9134 57.0586 21.532 56.921 22.1638C56.7812 22.7978 56.4339 23.3625 55.8791 23.8578L43.6456 34.3421L47.3073 49.9446C47.4738 50.66 47.4183 51.3073 47.1409 51.8862C46.8635 52.463 46.4751 52.944 45.9758 53.3293C45.4765 53.7145 44.8939 53.9346 44.2281 53.9897C43.5624 54.0447 42.9243 53.8796 42.3141 53.4944L28.4994 45.2391Z" fill="white"/>
</svg>
