<svg width="43" height="68" viewBox="0 0 43 68" fill="none" xmlns="http://www.w3.org/2000/svg">
<path d="M32.9814 5.59311C34.0694 5.59311 35.1129 6.02312 35.8822 6.78853C36.6516 7.55394 37.0838 8.59206 37.0838 9.67451V58.6513C37.0838 59.7337 36.6516 60.7718 35.8822 61.5372C35.1129 62.3026 34.0694 62.7326 32.9814 62.7326H8.36749C7.27949 62.7326 6.23605 62.3026 5.46671 61.5372C4.69738 60.7718 4.26517 59.7337 4.26517 58.6513V9.67451C4.26517 8.59206 4.69738 7.55394 5.46671 6.78853C6.23605 6.02312 7.27949 5.59311 8.36749 5.59311H32.9814ZM8.36749 1.51172C6.19148 1.51172 4.1046 2.37172 2.56593 3.90254C1.02726 5.43336 0.162842 7.5096 0.162842 9.67451V58.6513C0.162842 60.8162 1.02726 62.8924 2.56593 64.4232C4.1046 65.954 6.19148 66.814 8.36749 66.814H32.9814C35.1575 66.814 37.2443 65.954 38.783 64.4232C40.3217 62.8924 41.1861 60.8162 41.1861 58.6513V9.67451C41.1861 7.5096 40.3217 5.43336 38.783 3.90254C37.2443 2.37172 35.1575 1.51172 32.9814 1.51172H8.36749Z" fill="white"/>
<path d="M20.6745 58.6513C21.7625 58.6513 22.8059 58.2213 23.5753 57.4558C24.3446 56.6904 24.7768 55.6523 24.7768 54.5699C24.7768 53.4874 24.3446 52.4493 23.5753 51.6839C22.8059 50.9185 21.7625 50.4885 20.6745 50.4885C19.5865 50.4885 18.543 50.9185 17.7737 51.6839C17.0044 52.4493 16.5722 53.4874 16.5722 54.5699C16.5722 55.6523 17.0044 56.6904 17.7737 57.4558C18.543 58.2213 19.5865 58.6513 20.6745 58.6513Z" fill="white"/>
<path fill-rule="evenodd" clip-rule="evenodd" d="M35.8319 6.92643C35.168 6.256 34.2674 5.87935 33.3284 5.87935H8.85771C7.91872 5.87935 7.01818 6.256 6.35421 6.92643C5.69024 7.59686 5.31723 8.50616 5.31723 9.4543V58.8721C5.31723 59.8202 5.69024 60.7295 6.35421 61.3999C7.01818 62.0704 7.91872 62.447 8.85771 62.447H33.3284C34.2674 62.447 35.168 62.0704 35.8319 61.3999C36.4959 60.7295 36.8689 59.8202 36.8689 58.8721V9.4543C36.8689 8.50616 36.4959 7.59686 35.8319 6.92643ZM2.70951 3.24626C4.34012 1.59978 6.55169 0.674805 8.85771 0.674805H33.3284C35.6345 0.674805 37.846 1.59978 39.4766 3.24626C41.1072 4.89273 42.0233 7.12583 42.0233 9.4543V58.8721C42.0233 61.2005 41.1072 63.4336 39.4766 65.0801C37.846 66.7266 35.6345 67.6515 33.3284 67.6515H8.85771C6.55169 67.6515 4.34012 66.7266 2.70951 65.0801C1.07891 63.4336 0.162842 61.2005 0.162842 58.8721V9.4543C0.162842 7.12583 1.07891 4.89273 2.70951 3.24626ZM24.3574 58.05C23.4916 58.9242 22.3174 59.4153 21.0931 59.4153C19.8687 59.4153 18.6945 58.9242 17.8288 58.05C16.963 57.1758 16.4767 55.9902 16.4767 54.7539C16.4767 53.5177 16.963 52.332 17.8288 51.4579C18.6945 50.5837 19.8687 50.0926 21.0931 50.0926C22.3174 50.0926 23.4916 50.5837 24.3574 51.4579C25.2231 52.332 25.7095 53.5177 25.7095 54.7539C25.7095 55.9902 25.2231 57.1758 24.3574 58.05ZM36.2123 6.54233C35.4475 5.77003 34.4101 5.33615 33.3284 5.33615H8.85771C7.77604 5.33615 6.73867 5.77003 5.97381 6.54233C5.20895 7.31463 4.77926 8.3621 4.77926 9.4543V58.8721C4.77926 59.9643 5.20895 61.0117 5.97381 61.784C6.73867 62.5563 7.77604 62.9902 8.85771 62.9902H33.3284C34.4101 62.9902 35.4475 62.5563 36.2123 61.784C36.9772 61.0117 37.4069 59.9643 37.4069 58.8721V9.4543C37.4069 8.3621 36.9772 7.31463 36.2123 6.54233ZM3.08991 3.63036C4.61963 2.08576 6.69437 1.21801 8.85771 1.21801H33.3284C35.4918 1.21801 37.5665 2.08576 39.0962 3.63036C40.626 5.17497 41.4853 7.2699 41.4853 9.4543V58.8721C41.4853 61.0565 40.626 63.1514 39.0962 64.696C37.5665 66.2406 35.4918 67.1083 33.3284 67.1083H8.85771C6.69437 67.1083 4.61963 66.2406 3.08991 64.696C1.56019 63.1514 0.700808 61.0565 0.700808 58.8721V9.4543C0.700808 7.2699 1.56019 5.17497 3.08991 3.63036ZM23.977 57.6659C23.2121 58.4382 22.1748 58.8721 21.0931 58.8721C20.0114 58.8721 18.974 58.4382 18.2092 57.6659C17.4443 56.8936 17.0146 55.8461 17.0146 54.7539C17.0146 53.6617 17.4443 52.6143 18.2092 51.842C18.974 51.0696 20.0114 50.6358 21.0931 50.6358C22.1748 50.6358 23.2121 51.0696 23.977 51.842C24.7419 52.6143 25.1715 53.6617 25.1715 54.7539C25.1715 55.8461 24.7419 56.8936 23.977 57.6659Z" fill="white"/>
</svg>
