<svg width="61" height="62" viewBox="0 0 61 62" fill="none" xmlns="http://www.w3.org/2000/svg">
<path d="M56.1273 26.4318H54.0004V0.554694H49.7466V26.4318H47.6197C46.4919 26.433 45.4106 26.8877 44.6131 27.6963C43.8156 28.5048 43.3671 29.6012 43.3659 30.7447V35.0575C43.3671 36.201 43.8156 37.2973 44.6131 38.1059C45.4106 38.9145 46.4919 39.3692 47.6197 39.3704H49.7466V60.9346H54.0004V39.3704H56.1273C57.2549 39.3687 58.3359 38.9137 59.1333 38.1053C59.9306 37.2968 60.3793 36.2008 60.381 35.0575V30.7447C60.3799 29.6012 59.9314 28.5048 59.1339 27.6963C58.3364 26.8877 57.2551 26.433 56.1273 26.4318ZM56.1273 35.0575H47.6197V30.7447H56.1273V35.0575ZM34.8584 9.1804H32.7315V0.554694H28.4777V9.1804H26.3508C25.223 9.18154 24.1417 9.6363 23.3442 10.4449C22.5467 11.2534 22.0982 12.3498 22.0971 13.4933V17.8061C22.0982 18.9496 22.5467 20.0459 23.3442 20.8545C24.1417 21.6631 25.223 22.1178 26.3508 22.119H28.4777V60.9346H32.7315V22.119H34.8584C35.9862 22.1178 37.0675 21.6631 37.865 20.8545C38.6625 20.0459 39.111 18.9496 39.1122 17.8061V13.4933C39.111 12.3498 38.6625 11.2534 37.865 10.4449C37.0675 9.6363 35.9862 9.18154 34.8584 9.1804ZM34.8584 17.8061H26.3508V13.4933H34.8584V17.8061ZM13.5895 39.3704H11.4626V0.554694H7.20887V39.3704H5.08199C3.95416 39.3715 2.87285 39.8263 2.07536 40.6348C1.27787 41.4434 0.829341 42.5397 0.828215 43.6832V47.9961C0.829341 49.1396 1.27787 50.2359 2.07536 51.0445C2.87285 51.853 3.95416 52.3078 5.08199 52.3089H7.20887V60.9346H11.4626V52.3089H13.5895C14.7174 52.3078 15.7987 51.853 16.5962 51.0445C17.3937 50.2359 17.8422 49.1396 17.8433 47.9961V43.6832C17.8422 42.5397 17.3937 41.4434 16.5962 40.6348C15.7987 39.8263 14.7174 39.3715 13.5895 39.3704ZM13.5895 47.9961H5.08199V43.6832H13.5895V47.9961Z" fill="white"/>
<path fill-rule="evenodd" clip-rule="evenodd" d="M43.3659 30.7447C43.3671 29.6012 43.8156 28.5048 44.6131 27.6963C45.4106 26.8877 46.4919 26.433 47.6197 26.4318H49.7466V0.554694H54.0004V26.4318H56.1273C57.2551 26.433 58.3364 26.8877 59.1339 27.6963C59.9314 28.5048 60.3799 29.6012 60.381 30.7447V35.0575C60.3793 36.2008 59.9306 37.2968 59.1333 38.1053C58.3359 38.9137 57.2549 39.3687 56.1273 39.3704H54.0004V60.9346H49.7466V39.3704H47.6197C46.4919 39.3692 45.4106 38.9145 44.6131 38.1059C43.8156 37.2973 43.3671 36.201 43.3659 35.0575V30.7447ZM49.3835 39.7385H47.6193C46.3953 39.7373 45.2218 39.2438 44.3563 38.3662C43.4908 37.4887 43.004 36.2989 43.0028 35.0579V30.7443C43.004 29.5033 43.4908 28.3135 44.3563 27.4359C45.2218 26.5584 46.3953 26.0649 47.6193 26.0636H49.3835V0.186523H54.3635V26.0636H56.1273V26.429L56.1276 26.0636C57.3516 26.0649 58.5251 26.5584 59.3907 27.4359C60.2562 28.3135 60.7429 29.5033 60.7442 30.7443V35.0581C60.7423 36.2988 60.2554 37.4883 59.39 38.3656C58.5247 39.243 57.3516 39.7367 56.1278 39.7385H54.3635V61.3028H49.3835V39.7385ZM34.8588 8.81223C36.0828 8.81347 37.2563 9.307 38.1218 10.1845C38.9873 11.0621 39.4741 12.2519 39.4753 13.4929V17.8065C39.4741 19.0475 38.9873 20.2373 38.1218 21.1148C37.2563 21.9924 36.0828 22.4859 34.8588 22.4871H33.0946V61.3028H28.1146V22.4871H26.3505C25.1265 22.4859 23.953 21.9924 23.0875 21.1148C22.2219 20.2373 21.7352 19.0475 21.7339 17.8065V13.4929C21.7352 12.2519 22.2219 11.0621 23.0875 10.1845C23.953 9.307 25.1265 8.81347 26.3505 8.81223H28.1146V0.186523H33.0946V8.81223H34.8588ZM22.0971 13.4933C22.0982 12.3498 22.5467 11.2534 23.3442 10.4449C24.1417 9.6363 25.223 9.18154 26.3508 9.1804H28.4777V0.554694H32.7315V9.1804H34.8584C35.9862 9.18154 37.0675 9.6363 37.865 10.4449C38.6625 11.2534 39.111 12.3498 39.1122 13.4933V17.8061C39.111 18.9496 38.6625 20.0459 37.865 20.8545C37.0675 21.6631 35.9862 22.1178 34.8584 22.119H32.7315V60.9346H28.4777V22.119H26.3508C25.223 22.1178 24.1417 21.6631 23.3442 20.8545C22.5467 20.0459 22.0982 18.9496 22.0971 17.8061V13.4933ZM13.5899 39.0022C14.8139 39.0034 15.9874 39.497 16.8529 40.3745C17.7184 41.252 18.2052 42.4418 18.2064 43.6829V47.9964C18.2052 49.2374 17.7184 50.4273 16.8529 51.3048C15.9874 52.1823 14.8139 52.6759 13.5899 52.6771H11.8258V61.3028H6.84575V52.6771H5.08162C3.85762 52.6759 2.68409 52.1823 1.81859 51.3048C0.953087 50.4273 0.46631 49.2374 0.465088 47.9964L0.465088 43.6829C0.46631 42.4418 0.953087 41.252 1.81859 40.3745C2.68409 39.497 3.85762 39.0034 5.08162 39.0022H6.84575V0.186523H11.8258V39.0022H13.5899ZM5.08199 39.3704H7.20887V0.554694H11.4626V39.3704H13.5895C14.7174 39.3715 15.7987 39.8263 16.5962 40.6348C17.3937 41.4434 17.8422 42.5397 17.8433 43.6832V47.9961C17.8422 49.1396 17.3937 50.2359 16.5962 51.0445C15.7987 51.853 14.7174 52.3078 13.5895 52.3089H11.4626V60.9346H7.20887V52.3089H5.08199C3.95416 52.3078 2.87285 51.853 2.07536 51.0445C1.27787 50.2359 0.829341 49.1396 0.828215 47.9961V43.6832C0.829341 42.5397 1.27787 41.4434 2.07536 40.6348C2.87285 39.8263 3.95416 39.3715 5.08199 39.3704ZM47.9828 34.6893H55.7641V31.1128H47.9828V34.6893ZM26.714 17.4379H34.4953V13.8614H26.714V17.4379ZM5.44511 47.6279H13.2264V44.0514H5.44511V47.6279ZM56.1273 35.0575V30.7447H47.6197V35.0575H56.1273ZM34.8584 17.8061V13.4933H26.3508V17.8061H34.8584ZM13.5895 47.9961V43.6832H5.08199V47.9961H13.5895Z" fill="white"/>
</svg>
