<svg width="84" height="60" viewBox="0 0 84 60" fill="none" xmlns="http://www.w3.org/2000/svg">
<path d="M54.4548 0.860355C62.1407 0.856605 69.5202 3.87359 75.0026 9.26092C80.485 14.6483 83.6312 21.9745 83.763 29.6603C83.8948 37.3461 81.0016 44.7759 75.7071 50.348C70.4126 55.9202 63.1408 59.1885 55.4593 59.4483L54.4548 59.465H29.3589C21.673 59.4688 14.2935 56.4518 8.81109 51.0644C3.32868 45.6771 0.182474 38.3509 0.0506985 30.6651C-0.0810769 22.9793 2.81213 15.5495 8.10664 9.97732C13.4011 4.40515 20.6729 1.1369 28.3544 0.8771L29.3547 0.860355H54.4507H54.4548ZM54.4548 7.13942H29.3589C23.3253 7.1267 17.5279 9.48364 13.2144 13.703C8.90096 17.9223 6.41622 23.6668 6.29498 29.7C6.17374 35.7332 8.42569 41.5729 12.5662 45.9621C16.7067 50.3514 22.4047 52.9394 28.4339 53.1692L29.3589 53.1859H54.4548C60.4884 53.1987 66.2858 50.8417 70.5993 46.6224C74.9127 42.403 77.3975 36.6586 77.5187 30.6254C77.64 24.5922 75.388 18.7525 71.2475 14.3632C67.107 9.97393 61.409 7.38592 55.3798 7.15617L54.4548 7.13942V7.13942ZM25.165 17.6045C25.9976 17.6045 26.796 17.9353 27.3847 18.5241C27.9734 19.1129 28.3041 19.9114 28.3041 20.7441V27.0148H34.5823C35.4148 27.0148 36.2133 27.3455 36.802 27.9343C37.3907 28.5231 37.7214 29.3217 37.7214 30.1543C37.7214 30.987 37.3907 31.7855 36.802 32.3743C36.2133 32.9631 35.4148 33.2938 34.5823 33.2938H28.3041V39.5813C28.3041 40.4139 27.9734 41.2125 27.3847 41.8013C26.796 42.39 25.9976 42.7208 25.165 42.7208C24.3325 42.7208 23.5341 42.39 22.9454 41.8013C22.3567 41.2125 22.0259 40.4139 22.0259 39.5813V33.2938H15.7478C15.3355 33.2938 14.9273 33.2126 14.5465 33.0549C14.1656 32.8971 13.8196 32.6658 13.5281 32.3743C13.2366 32.0828 13.0054 31.7367 12.8476 31.3558C12.6899 30.9748 12.6087 30.5666 12.6087 30.1543C12.6087 29.742 12.6899 29.3338 12.8476 28.9529C13.0054 28.572 13.2366 28.2259 13.5281 27.9343C13.8196 27.6428 14.1656 27.4115 14.5465 27.2538C14.9273 27.096 15.3355 27.0148 15.7478 27.0148H22.0259V20.7441C22.0259 19.9114 22.3567 19.1129 22.9454 18.5241C23.5341 17.9353 24.3325 17.6045 25.165 17.6045ZM53.4168 32.2557C54.8044 32.2557 56.1351 32.807 57.1163 33.7883C58.0975 34.7696 58.6487 36.1005 58.6487 37.4883C58.6487 38.876 58.0975 40.2069 57.1163 41.1882C56.1351 42.1695 54.8044 42.7208 53.4168 42.7208C52.0293 42.7208 50.6985 42.1695 49.7174 41.1882C48.7362 40.2069 48.185 38.876 48.185 37.4883C48.185 36.1005 48.7362 34.7696 49.7174 33.7883C50.6985 32.807 52.0293 32.2557 53.4168 32.2557ZM61.7878 17.6045C63.1753 17.6045 64.5061 18.1558 65.4872 19.1371C66.4684 20.1184 67.0196 21.4493 67.0196 22.8371C67.0196 24.2249 66.4684 25.5558 65.4872 26.5371C64.5061 27.5184 63.1753 28.0697 61.7878 28.0697C60.4002 28.0697 59.0695 27.5184 58.0883 26.5371C57.1071 25.5558 56.5559 24.2249 56.5559 22.8371C56.5559 21.4493 57.1071 20.1184 58.0883 19.1371C59.0695 18.1558 60.4002 17.6045 61.7878 17.6045V17.6045Z" fill="white"/>
</svg>
