<svg width="89" height="64" viewBox="0 0 89 64" fill="none" xmlns="http://www.w3.org/2000/svg">
<path fill-rule="evenodd" clip-rule="evenodd" d="M9.70989 6.2091C8.09915 6.2091 6.81408 7.50624 6.81408 9.08088V46.5792C6.81408 48.1538 8.09915 49.451 9.70989 49.451H79.2671C80.8778 49.451 82.1629 48.1538 82.1629 46.5792V9.08088C82.1629 7.50625 80.8778 6.2091 79.2671 6.2091H9.70989ZM0.953613 9.08088C0.953613 4.24679 4.88536 0.348633 9.70989 0.348633H79.2671C84.0916 0.348633 88.0234 4.24679 88.0234 9.08088V46.5792C88.0234 51.4133 84.0916 55.3114 79.2671 55.3114H9.70989C4.88536 55.3114 0.953613 51.4133 0.953613 46.5792V9.08088ZM18.3556 61.0463C18.3556 59.428 19.6675 58.1161 21.2858 58.1161H67.6912C69.3095 58.1161 70.6214 59.428 70.6214 61.0463C70.6214 62.6646 69.3095 63.9765 67.6912 63.9765H21.2858C19.6675 63.9765 18.3556 62.6646 18.3556 61.0463Z" fill="white"/>
</svg>
