<svg width="45" height="62" viewBox="0 0 45 62" fill="none" xmlns="http://www.w3.org/2000/svg">
<path fill-rule="evenodd" clip-rule="evenodd" d="M13.9958 1.74295C14.441 0.79346 15.3985 0.186523 16.4514 0.186523H34.5369C35.4405 0.186523 36.2847 0.634816 36.7878 1.38183C37.2909 2.12885 37.3866 3.07626 37.043 3.90797L29.1487 23.0177H41.7321C42.849 23.0177 43.8514 23.6996 44.2569 24.7351C44.6624 25.7706 44.3878 26.9476 43.5654 27.6995L7.58903 60.5919C6.68014 61.4229 5.32174 61.5377 4.28508 60.8711C3.24842 60.2044 2.7955 58.9249 3.18346 57.759L11.4359 32.9572H3.61662C2.69061 32.9572 1.82872 32.4867 1.33123 31.7095C0.833742 30.9323 0.769556 29.9561 1.16103 29.1211L13.9958 1.74295ZM18.1774 5.57913L7.87061 27.5646H15.1874C16.0574 27.5646 16.8745 27.9804 17.384 28.6822C17.8934 29.384 18.0332 30.2866 17.7597 31.1084L11.6091 49.5933L34.7781 28.4103H25.1052C24.2015 28.4103 23.3573 27.9621 22.8543 27.215C22.3512 26.468 22.2555 25.5206 22.5991 24.6889L30.4934 5.57913H18.1774Z" fill="white"/>
</svg>
