<svg width="51" height="48" viewBox="0 0 51 48" fill="none" xmlns="http://www.w3.org/2000/svg">
<path d="M25.1646 44.0004C26.9612 39.9345 26.9927 36.1522 24.944 32.4645C23.1474 29.1865 21.1617 26.0346 19.2706 22.8197C17.0958 19.1005 16.686 15.3182 18.8924 11.4729C19.0184 11.2523 19.176 11.0631 19.3336 10.9055C22.8953 18.3125 27.6546 25.026 31.2478 32.5906C32.7922 30.4473 32.9813 28.1149 32.6346 25.7194C32.4455 24.4272 31.9097 23.1979 31.2793 22.0632C29.2621 18.5016 27.3079 14.9715 25.3853 11.4098C23.3681 7.69062 23.3365 3.93987 25.5744 0C26.1732 1.29228 26.646 2.48999 27.2764 3.59316C29.4512 7.40695 31.6575 11.2523 33.9269 15.0345C34.8725 16.642 35.6289 18.3125 36.0071 20.1091C36.2278 21.1807 36.7321 21.685 37.8037 22.0002C41.586 23.1034 45.0531 24.7739 47.7952 27.7367C51.2938 31.5189 51.2938 36.2783 47.7637 39.9975C44.013 43.9689 39.1275 45.734 33.9584 46.711C25.4798 48.287 17.1273 47.7827 9.08999 44.3156C6.22177 43.0548 3.63722 41.3213 1.84064 38.6737C-0.5548 35.2066 -0.365686 31.4244 2.34494 28.2094C5.24468 24.7739 9.15303 23.0403 13.3766 21.8741C13.9124 21.7165 14.5428 21.7165 14.5428 22.473C14.6058 26.2237 16.9697 28.9974 18.6087 32.0863C20.689 35.9946 23.4311 39.5562 25.1646 44.0004Z" fill="url(#paint0_linear_288_28120)"/>
<defs>
<linearGradient id="paint0_linear_288_28120" x1="25.2922" y1="0" x2="25.2922" y2="47.5635" gradientUnits="userSpaceOnUse">
<stop stop-color="#4A98DC"/>
<stop offset="1" stop-color="#FF5A6E"/>
</linearGradient>
</defs>
</svg>
