<svg width="49" height="40" viewBox="0 0 49 40" fill="none" xmlns="http://www.w3.org/2000/svg">
<path d="M49 5V35C49 36.375 48.5206 37.5525 47.5619 38.5325C46.6015 39.5108 45.4475 40 44.1 40H4.9C3.5525 40 2.39937 39.5108 1.4406 38.5325C0.4802 37.5525 0 36.375 0 35V5C0 3.625 0.4802 2.44833 1.4406 1.47C2.39937 0.49 3.5525 0 4.9 0H44.1C45.4475 0 46.6015 0.49 47.5619 1.47C48.5206 2.44833 49 3.625 49 5ZM4.9 10H44.1V5H4.9V10ZM4.9 20V35H44.1V20H4.9ZM4.9 35V5V35Z" fill="url(#paint0_linear_288_28109)"/>
<defs>
<linearGradient id="paint0_linear_288_28109" x1="24.5" y1="0" x2="24.5" y2="40" gradientUnits="userSpaceOnUse">
<stop stop-color="#4A98DC"/>
<stop offset="1" stop-color="#FF5A6E"/>
</linearGradient>
</defs>
</svg>
