<svg width="60" height="43" viewBox="0 0 60 43" fill="none" xmlns="http://www.w3.org/2000/svg">
<path d="M0 9.40625H26.2921L28.3146 13.4375H2.02247L0 9.40625ZM2.69663 17.4688H28.9888L31.0112 21.5H4.7191L2.69663 17.4688ZM46.5169 38.9688C48.7551 38.9688 50.5618 37.1681 50.5618 34.9375C50.5618 32.7069 48.7551 30.9062 46.5169 30.9062C44.2787 30.9062 42.4719 32.7069 42.4719 34.9375C42.4719 37.1681 44.2787 38.9688 46.5169 38.9688ZM50.5618 14.7812H43.8202V21.5H55.8472L50.5618 14.7812ZM19.5506 38.9688C21.7888 38.9688 23.5955 37.1681 23.5955 34.9375C23.5955 32.7069 21.7888 30.9062 19.5506 30.9062C17.3124 30.9062 15.5056 32.7069 15.5056 34.9375C15.5056 37.1681 17.3124 38.9688 19.5506 38.9688ZM51.9101 10.75L60 21.5V34.9375H54.6067C54.6067 39.3987 50.9933 43 46.5169 43C42.0405 43 38.427 39.3987 38.427 34.9375H27.6405C27.6405 39.3987 24 43 19.5506 43C15.0742 43 11.4607 39.3987 11.4607 34.9375H6.06742V25.5312H11.4607V29.5625H13.5101C14.9933 27.9231 17.1506 26.875 19.5506 26.875C21.9506 26.875 24.1079 27.9231 25.591 29.5625H38.427V5.375H6.06742C6.06742 2.39187 8.46742 0 11.4607 0H43.8202V10.75H51.9101Z" fill="url(#paint0_linear_288_28099)"/>
<defs>
<linearGradient id="paint0_linear_288_28099" x1="30" y1="0" x2="30" y2="43" gradientUnits="userSpaceOnUse">
<stop stop-color="#4A98DC"/>
<stop offset="1" stop-color="#FF5A6E"/>
</linearGradient>
</defs>
</svg>
