<svg width="48" height="47" viewBox="0 0 48 47" fill="none" xmlns="http://www.w3.org/2000/svg">
<path d="M43.3171 35.25C44.5591 35.25 45.7502 34.7548 46.6284 33.8734C47.5066 32.992 48 31.7965 48 30.55V4.7C48 3.45348 47.5066 2.25802 46.6284 1.3766C45.7502 0.495177 44.5591 0 43.3171 0H18.638C19.4576 1.4335 19.9024 3.055 19.9024 4.7H43.3171V30.55H22.2439V35.25M31.6098 11.75V16.45H17.561V47H12.878V32.9H8.19512V47H3.51219V28.2H0V16.45C0 15.2035 0.493378 14.008 1.3716 13.1266C2.24982 12.2452 3.44094 11.75 4.68293 11.75H31.6098ZM15.2195 4.7C15.2195 5.94652 14.7261 7.14198 13.8479 8.0234C12.9697 8.90482 11.7786 9.4 10.5366 9.4C9.2946 9.4 8.10347 8.90482 7.22526 8.0234C6.34704 7.14198 5.85366 5.94652 5.85366 4.7C5.85366 3.45348 6.34704 2.25802 7.22526 1.3766C8.10347 0.495177 9.2946 0 10.5366 0C11.7786 0 12.9697 0.495177 13.8479 1.3766C14.7261 2.25802 15.2195 3.45348 15.2195 4.7Z" fill="url(#paint0_linear_288_28089)"/>
<defs>
<linearGradient id="paint0_linear_288_28089" x1="24" y1="0" x2="24" y2="47" gradientUnits="userSpaceOnUse">
<stop stop-color="#4A98DC"/>
<stop offset="1" stop-color="#FF5A6E"/>
</linearGradient>
</defs>
</svg>
