<svg width="50" height="44" viewBox="0 0 50 44" fill="none" xmlns="http://www.w3.org/2000/svg">
<path d="M5.92643 5.5C5.15441 5.5 4.50681 5.23692 3.98365 4.71075C3.46231 4.18275 3.20164 3.52917 3.20164 2.75C3.20164 1.97083 3.46231 1.31725 3.98365 0.78925C4.50681 0.263084 5.15441 0 5.92643 0H44.0736C44.8456 0 45.4923 0.263084 46.0136 0.78925C46.5368 1.31725 46.7984 1.97083 46.7984 2.75C46.7984 3.52917 46.5368 4.18275 46.0136 4.71075C45.4923 5.23692 44.8456 5.5 44.0736 5.5H5.92643ZM5.92643 44C5.15441 44 4.50681 43.736 3.98365 43.208C3.46231 42.6818 3.20164 42.0292 3.20164 41.25V27.5H2.7248C1.86194 27.5 1.15804 27.1673 0.613079 26.5018C0.06812 25.8381 -0.113533 25.0708 0.0681199 24.2L2.79292 10.45C2.92916 9.80833 3.24705 9.28125 3.74659 8.86875C4.24614 8.45625 4.81381 8.25 5.44959 8.25H44.5504C45.1862 8.25 45.7539 8.45625 46.2534 8.86875C46.7529 9.28125 47.0708 9.80833 47.2071 10.45L49.9319 24.2C50.1135 25.0708 49.9319 25.8381 49.3869 26.5018C48.842 27.1673 48.1381 27.5 47.2752 27.5H46.7984V41.25C46.7984 42.0292 46.5368 42.6818 46.0136 43.208C45.4923 43.736 44.8456 44 44.0736 44C43.3015 44 42.6549 43.736 42.1335 43.208C41.6104 42.6818 41.3488 42.0292 41.3488 41.25V27.5H30.4496V41.25C30.4496 42.0292 30.1889 42.6818 29.6676 43.208C29.1444 43.736 28.4968 44 27.7248 44H5.92643ZM8.65123 38.5H25V27.5H8.65123V38.5ZM6.06267 22H43.9373H6.06267ZM6.06267 22H43.9373L42.3025 13.75H7.69755L6.06267 22Z" fill="url(#paint0_linear_288_28079)"/>
<defs>
<linearGradient id="paint0_linear_288_28079" x1="25" y1="0" x2="25" y2="44" gradientUnits="userSpaceOnUse">
<stop stop-color="#4A98DC"/>
<stop offset="1" stop-color="#FF5A6E"/>
</linearGradient>
</defs>
</svg>
