<svg width="43" height="57" viewBox="0 0 43 57" fill="none" xmlns="http://www.w3.org/2000/svg">
<path d="M21.2761 13.1841V20.8907L31.7121 10.6153L21.2761 0.339844V8.04641C15.7405 8.04641 10.4317 10.2116 6.51743 14.0656C2.60318 17.9196 0.404175 23.1468 0.404175 28.5972C0.404175 32.6303 1.60431 36.3809 3.63933 39.5406L7.44845 35.79C6.2443 33.5783 5.61676 31.1067 5.62216 28.5972C5.62216 24.5094 7.27141 20.589 10.2071 17.6985C13.1428 14.808 17.1244 13.1841 21.2761 13.1841M38.9129 17.6539L35.1038 21.4045C36.2517 23.5623 36.9301 26.0284 36.9301 28.5972C36.9301 32.6851 35.2808 36.6055 32.3451 39.496C29.4095 42.3865 25.4278 44.0104 21.2761 44.0104V36.3038L10.8401 46.5792L21.2761 56.8546V49.1481C26.8117 49.1481 32.1206 46.9829 36.0348 43.1289C39.9491 39.2749 42.1481 34.0477 42.1481 28.5972C42.1481 24.5641 40.9479 20.8136 38.9129 17.6539V17.6539Z" fill="url(#paint0_linear_288_28064)"/>
<defs>
<linearGradient id="paint0_linear_288_28064" x1="21.2761" y1="0.339844" x2="21.2761" y2="56.8546" gradientUnits="userSpaceOnUse">
<stop stop-color="#4A98DC"/>
<stop offset="1" stop-color="#FF5A6E"/>
</linearGradient>
</defs>
</svg>
