<svg width="48" height="53" viewBox="0 0 48 53" fill="none" xmlns="http://www.w3.org/2000/svg">
<path d="M47.0746 38.1566C47.0746 39.1328 46.5351 39.9805 45.7131 40.4172L25.4192 51.8229C25.0081 52.1312 24.4944 52.2853 23.9549 52.2853C23.4154 52.2853 22.9017 52.1312 22.4907 51.8229L2.19671 40.4172C1.78487 40.2008 1.44021 39.8756 1.20018 39.4771C0.960149 39.0785 0.833923 38.6218 0.835215 38.1566V15.0369C0.835215 14.0607 1.37467 13.213 2.19671 12.7763L22.4907 1.3706C22.9017 1.06233 23.4154 0.908203 23.9549 0.908203C24.4944 0.908203 25.0081 1.06233 25.4192 1.3706L45.7131 12.7763C46.5351 13.213 47.0746 14.0607 47.0746 15.0369V38.1566ZM23.9549 6.43124L19.0998 9.17991L34.2303 17.8883L39.2653 15.0369L23.9549 6.43124ZM8.64453 15.0369L23.9549 23.6426L28.9899 20.8168L13.885 12.0827L8.64453 15.0369ZM5.97292 36.641L21.3861 45.3237V28.0867L5.97292 19.4296V36.641ZM41.9369 36.641V19.4296L26.5238 28.0867V45.3237L41.9369 36.641V36.641Z" fill="url(#paint0_linear_288_28055)"/>
<defs>
<linearGradient id="paint0_linear_288_28055" x1="23.9549" y1="0.908203" x2="23.9549" y2="52.2853" gradientUnits="userSpaceOnUse">
<stop stop-color="#4A98DC"/>
<stop offset="1" stop-color="#FF5A6E"/>
</linearGradient>
</defs>
</svg>
