<?xml version="1.0" encoding="utf-8"?>
<!-- Generator: Adobe Illustrator 24.0.2, SVG Export Plug-In . SVG Version: 6.00 Build 0)  -->
<svg version="1.1" id="Capa_1" xmlns="http://www.w3.org/2000/svg" xmlns:xlink="http://www.w3.org/1999/xlink" x="0px" y="0px"
	 viewBox="0 0 7517 1461.4" style="enable-background:new 0 0 7517 1461.4;" xml:space="preserve">
<style type="text/css">
	.st0{fill:#B33330;}
	.st1{fill:#2B568E;}
</style>
<path class="st0" d="M4103.3,0.1c163.9,0,327.9,0.1,491.8-0.1c18.9,0,37.1,2.2,54.8,8.9c34.2,12.9,62.8,45.3,62.7,88.9
	c0,22.3-2.4,43.9-9.9,64.8c-7.9,21.9-16.2,43.7-25,65.3c-44.9,111.2-90,222.3-135.1,333.4C4490.9,689,4439,816.8,4387,944.5
	c-4.5,11.1-9.8,21.9-15.1,32.6c-2.7,5.3-6,10.4-9.7,15.1c-13.1,16.7-29.9,25.8-51.6,25.6c-37.3-0.4-74.6-0.1-112,0
	c-6,0-12,0.2-18,0.4c-2.9,0.1-4.3,3.6-2.3,5.9c4.5,4.9,9.1,9.8,13.8,14.5c106.5,106.5,213,212.9,319.5,319.4
	c6.1,6.1,12.5,12.1,17.9,18.8c26.4,32.3,16.4,66.7-23.2,79.9c-9.5,3.2-19.4,4.7-29.5,4.7c-100-0.1-199.9-0.2-299.9-0.1
	c-13.5,0-26.5-2.3-39.6-4.9c-12.6-2.5-24.2-7.5-33.9-16.2c-8-7.1-16-14.1-23.5-21.6c-123.5-123.4-247-246.8-370.4-370.2
	c-5.2-5.2-10.5-10.3-16-15c-3.5-3-7.8-1.9-10,2.2c-1.9,3.5-3.4,7.2-4.9,10.9c-36.6,88.7-73.2,177.3-109.8,266
	c-10.4,25.2-20.7,50.5-31.2,75.7c-3.3,8-6.7,16-10.7,23.7c-10.2,19.4-25.6,32.2-48,35c-7.2,0.9-14.6,1.5-21.9,1.6
	c-78.6,0.2-157.3,0.2-235.9,0.4c-10.7,0-21.3-0.6-31.7-3.3c-16.9-4.5-24.1-15.2-21.6-32.8c1.6-11.3,6-21.8,10.2-32.3
	c17.2-42.6,34.6-85.2,51.8-127.8c46.1-114.3,92.1-228.6,138.3-342.9c53.6-132.8,107.3-265.5,161-398.3c20-49.4,40.1-98.8,60-148.2
	c7.8-19.5,6.7-21-14.9-21.1c-32.7-0.1-65.3-0.1-98-0.1c-9.4,0-18.6-0.3-27.6-3.6c-16.3-5.9-23.2-16.9-20.6-34.1
	c1.6-10.6,5.7-20.5,9.7-30.4c14.7-36.4,29.5-72.8,44.2-109.3c15-37.1,29.8-74.2,44.7-111.2c2.2-5.6,4.3-11.2,7.2-16.5
	c12.1-22.1,30.7-34.6,55.9-36.5c8-0.6,16-0.3,24-0.3C3776.8,0.1,3940.1,0.1,4103.3,0.1z M3954.8,704.1c36.6,0,73.2,0,109.8,0
	c6,0,12,0.3,18-0.4c22.6-2.7,41-11.5,48.5-35.1c0.8-2.5,2-4.9,3-7.4c24.7-61.1,49.5-122.1,74.2-183.2
	c13.8-33.9,27.6-67.8,41.3-101.7c2.5-6.2,5.2-12.2,5.2-19.1c0-9-3.8-13.9-12.6-14.7c-6-0.5-12-0.4-18-0.4c-79.2,0-158.4,0-237.7,0
	c-29.6,0-26.3-1.8-37.2,25.5c-29,73-57.7,146.1-86.5,219.1c-12.7,32.2-25.6,64.3-38.3,96.5c-1.7,4.3-3.4,8.7-4.5,13.2
	c-0.9,3.6,0.7,6.7,4.8,7.1c4.6,0.5,9.3,0.6,13.9,0.6C3877.6,704.1,3916.2,704.1,3954.8,704.1z"/>
<path class="st1" d="M6680.6,344.7c95.3,0,190.6,0,285.9,0c12,0,23.9,0.6,35.7,3.7c8.4,2.2,16.4,5.5,23.9,10
	c18.7,11.1,28.2,27.6,29.9,49c1.8,23.1-2.7,45.1-11.3,66.4c-17.7,43.9-35.5,87.7-53.1,131.6c-46.7,116.2-93.2,232.4-139.9,348.6
	c-33.5,83.4-67.1,166.8-100.8,250.2c-2.2,5.5-4.5,11.2-7.8,16.2c-8,12.5-19.4,19.9-34.4,21.1c-5.3,0.4-10.7,0.4-16,0.4
	c-60,0-119.9,0-179.9,0c-6.6,0-13.4,0.1-19.9-0.9c-12.3-1.9-18.3-9.7-18.1-22.4c0.1-7.5,2.7-14.3,5.5-21.2
	c13.1-32.8,26.3-65.5,39.4-98.3c4-9.9,8-19.8,11.5-29.8c2.7-7.7,0.2-10.9-8.4-11.6c-4-0.3-8-0.2-12-0.2c-53.3,0-106.6,0-159.9,0
	c-2,0-4,0.2-6,0c-11.7-1.1-18.1,4.3-22.4,15.2c-16.5,42.2-33.8,84.1-50.8,126c-2.8,6.8-5.4,13.7-9.3,19.9
	c-8.9,14.5-21.8,23.1-39.4,23.2c-8,0-16,0.1-24,0.1c-56,0-111.9,0-167.9-0.1c-6.6,0-13.4,0.1-19.9-1.1
	c-12.1-2.2-18.4-10.7-17.6-22.8c0.4-7.4,2.9-14.3,5.6-21.1c57.8-143.3,115.6-286.6,173.5-429.9c49.6-122.9,99.4-245.7,149-368.6
	c4.5-11.2,9.4-22,16.3-32c9-13,21.4-19.7,36.8-21.2c6.6-0.6,13.3-0.4,20-0.4C6490.1,344.7,6585.3,344.7,6680.6,344.7z M6527.5,821.1
	c4,0,8,0,12,0c24.6,0,49.3-0.7,73.9,0.2c14.4,0.5,22.2-5.3,26.6-18.5c4.2-12.6,9.7-24.8,14.7-37.1c20.5-50.6,41-101.2,61.4-151.8
	c2.7-6.8,5.9-13.4,6.5-20.9c0.6-7.9-3-13-10.6-14.3c-3.9-0.7-8-0.8-11.9-0.8c-46.6,0-93.3,0-139.9,0c-8,0-15.9,1-23.7,3.1
	c-11.1,3-18.9,9.6-23.7,19.8c-2.8,6-5.2,12.3-7.7,18.4c-14.5,35.8-29.1,71.5-43.6,107.3c-11,27.2-22,54.3-32.6,81.6
	c-3.4,8.8-0.8,12.3,8.7,12.8c4.6,0.3,9.3,0.2,14,0.2C6476.8,821.1,6502.1,821.1,6527.5,821.1z"/>
<path class="st1" d="M1449.2,344.7c95.3,0,190.6,0.1,285.9-0.1c13.4,0,26.6,0.9,39.5,4.7c38,11,54.8,39.7,51.1,77.3
	c-1.8,18.1-7.2,35.1-14,51.9c-47.1,117.5-94.2,235-141.4,352.4c-48.9,121.8-97.9,243.5-146.9,365.3c-3.2,8-6.7,16-11,23.5
	c-7.8,13.7-19.8,21.3-35.8,21.9c-5.3,0.2-10.7,0.3-16,0.3c-59.3,0-118.6,0-177.9,0c-6,0-12,0.2-18-0.5
	c-16.3-1.8-23.5-11.5-20.1-27.7c1.5-7.1,4.1-14,6.8-20.8c13.5-34.1,27.2-68,40.9-102c1.7-4.3,3.5-8.6,5.2-13
	c6.8-17.9,5.6-20.1-12.6-20.2c-56.6-0.2-113.3-0.1-169.9,0c-3.3,0-6.7,0.2-10,0.5c-4.2,0.5-7.6,2.6-9.5,6.4
	c-2.4,4.8-4.4,9.7-6.4,14.6c-16.2,40.2-32.2,80.4-48.4,120.5c-3,7.4-6.1,14.9-10.3,21.6c-7.9,12.6-19.5,19.7-34.7,20.4
	c-3.3,0.2-6.7,0.2-10,0.2c-62.6,0-125.3,0-187.9,0c-5.3,0-10.7,0-15.9-0.8c-13.2-2.1-19.2-10.2-18.5-23.9c0.5-8.1,3.3-15.6,6.3-23
	c7.6-19.2,15.3-38.4,23-57.5c27.7-68.6,55.4-137.1,83.1-205.7c56.4-139.6,112.8-279.2,169.2-418.8c16.5-40.8,33.2-81.4,49.6-122.2
	c3.8-9.4,8.4-18.1,14.8-25.9c9.9-12,22.3-18.8,38-19.1c6.7-0.1,13.3-0.1,20-0.1C1261.2,344.7,1355.2,344.7,1449.2,344.7z
	 M1297.2,821.1C1297.2,821.1,1297.2,821.1,1297.2,821.1c30-0.1,59.9-0.2,89.9,0c9.8,0.1,16.7-3.5,19.9-13.2c0.8-2.5,2-4.9,3-7.4
	c25.9-64.2,51.9-128.4,77.8-192.6c1.7-4.3,3.5-8.7,4.7-13.1c2.2-8.2-1.8-14.4-10.4-16c-4.5-0.8-9.3-0.9-13.9-0.9
	c-46-0.1-91.9,0-137.9,0c-8,0-15.9,0.8-23.7,2.7c-11.2,2.7-19.1,9-24,19.2c-2.3,4.8-4.3,9.8-6.3,14.7c-7.8,19.1-15.7,38.2-23.4,57.3
	c-17.5,43.2-34.9,86.4-52.3,129.7c-1.5,3.7-3,7.5-3.8,11.3c-0.8,3.6,0.6,6.8,4.6,7.4c4.6,0.6,9.3,0.9,13.9,0.9
	C1242.6,821.2,1269.9,821.1,1297.2,821.1z"/>
<path class="st1" d="M3077.5,344.7c95.3,0,190.6,0.1,285.9-0.1c14.8,0,29.2,1.5,43.3,6.4c23.2,8,46.4,30.6,45.6,63.8
	c-0.2,10-0.4,20-3.3,29.7c-3.7,12.1-6.9,24.4-11.6,36.1c-48.5,121.2-97.3,242.4-146,363.5c-47.2,117.4-94.5,234.9-141.8,352.3
	c-2.7,6.8-5.4,13.7-8.7,20.2c-7.9,15.5-21,23.6-38.3,25c-4,0.3-8,0.3-12,0.3c-61.3,0-122.6,0-183.9,0c-4.7,0-9.4,0.1-14-0.4
	c-16.6-1.7-23.4-10.3-21.5-27c1-8.7,4.4-16.7,7.7-24.7c14.1-35.2,28.3-70.5,42.5-105.7c10.6-26.5,10.6-26.5-18.5-26.5
	c-51.3,0-102.6,0-154,0c-27.3,0-24.8,0.1-34.5,23.9c-16.6,40.7-32.8,81.6-49.2,122.4c-1.7,4.3-3.3,8.8-5.6,12.8
	c-8.9,15.4-21.8,25-40.3,25.2c-4,0.1-8,0.1-12,0.1c-60,0-120,0-180,0c-6,0-12.1,0.1-18-0.7c-16.2-2.2-23.4-12.2-19.6-28.1
	c2.2-9,5.5-17.8,9-26.4c28.1-69.8,56.3-139.6,84.5-209.4c34.7-85.9,69.3-171.8,104-257.6c42.9-106.2,85.9-212.5,129-318.7
	c3.5-8.6,7.5-17.1,11.7-25.4c10.2-20.3,26.8-30.8,49.7-30.8c6,0,12-0.1,18-0.1C2889.6,344.7,2983.6,344.7,3077.5,344.7z
	 M2923.2,821.1c24.6,0,49.3,0,73.9,0c4.7,0,9.3-0.3,14,0c11.3,0.5,19.4-3.7,22.9-15c0.4-1.3,0.9-2.5,1.4-3.7
	c26.2-64.8,52.4-129.6,78.6-194.5c1.7-4.3,3.5-8.7,4.4-13.2c1.7-8.3-2.5-14.4-11.1-15.8c-5.2-0.9-10.6-1-15.9-1
	c-44-0.1-87.9-0.1-131.9,0c-6,0-12,0.4-17.9,1c-18.2,2-30.1,11.1-36.7,29c-10.3,28.1-22.4,55.6-33.6,83.4
	c-15.5,38.3-30.9,76.5-46.2,114.9c-4.4,11.1-2.1,14.1,10.2,14.8c4.7,0.2,9.3,0.1,14,0.1C2873.9,821.1,2898.6,821.1,2923.2,821.1z"/>
<path class="st1" d="M4803.8,1241.8c-88.6,0-177.2,0-265.9,0c-15.3,0-30.7,0.5-45.7-3.8c-5.1-1.5-10.3-2.8-15.3-4.7
	c-32.3-12.3-48.1-36.5-49.8-70.3c-1.1-22.3,3.2-43.9,11-64.6c11.4-30.6,23.7-60.8,35.8-91.1c59.9-149.6,119.9-299.2,179.9-448.8
	c22.3-55.6,44.9-111.2,67.2-166.8c3.5-8.7,7.5-17,12.8-24.8c9.3-13.7,22.2-20.7,38.5-21.9c6-0.5,12-0.3,18-0.3
	c177.9,0,355.8,0,533.7-0.1c20.1,0,39.9,1.9,59.3,7.2c45.4,12.4,63.8,47.6,59,91.3c-2.6,23.9-9.5,46.9-18.6,69.3
	c-32.1,79-64.2,158-96.1,237c-42.7,105.6-85.2,211.2-127.9,316.8c-17.5,43.2-35.1,86.4-52.5,129.6c-5,12.5-11.4,24-21.2,33.5
	c-8,7.8-17.2,12.4-28.5,12.3c-6.7,0-13.3,0.1-20,0.1C4986.4,1241.8,4895.1,1241.8,4803.8,1241.8z M4844.9,1008.8c0-0.1,0-0.1,0-0.2
	c25.3,0,50.6-0.2,75.9,0.1c20.4,0.2,33.9-8.5,41-28.1c7.5-20.6,16.2-40.8,24.5-61.2c42.1-103.6,84.3-207.1,126.4-310.7
	c2-4.9,3.9-10,5-15.1c1.7-7.5-2-13-9.9-14.5c-4.5-0.9-9.3-1.1-13.9-1.1c-45.9-0.1-91.9,0.2-137.8-0.1c-26.3-0.2-42.7,10.4-52.7,36.3
	c-36.6,94.3-75,187.9-112.7,281.7c-11.7,29-23.5,58-34.7,87.2c-7.8,20.4-4.4,25.4,17,25.7C4796.9,1009,4820.9,1008.8,4844.9,1008.8z
	"/>
<path class="st1" d="M1936.7,1241.8c-106.6,0-213.2,0-319.9,0c-8,0-16.1,0.2-23.9-1c-15.7-2.4-22.6-13.4-18.7-29
	c1.1-4.5,2.8-8.9,4.5-13.2c20-50.1,40.6-100,60.1-150.3c10.2-26.4,28.7-38.9,56.3-39.4c6.7-0.1,13.3-0.1,20-0.1
	c123.3,0,246.6,0,369.8,0c8.7,0,17.3,0,26-0.8c13-1.2,22.7-7.8,27.7-20c7.8-19.1,15.1-38.4,22.5-57.7c0.7-1.8,1.1-3.9,1.3-5.8
	c0.9-6.6-2.5-11.7-9.3-13.2c-3.9-0.9-7.9-1.1-11.9-1.2c-8.7-0.2-17.3-0.1-26-0.1c-86.6,0-173.3,0-259.9,0c-15.3,0-30.6-0.1-45.6-4.2
	c-8.4-2.3-16.5-5.3-24.2-9.4c-23.6-12.6-36.7-32.2-38.4-59.1c-1.2-19.4-0.3-38.7,5.7-57.3c4-12.7,7.9-25.5,12.9-37.8
	c34.9-87.2,69.8-174.4,105.4-261.3c13.1-32,27.9-63.4,42-95c1.9-4.3,4.1-8.4,6.4-12.4c11.1-18.7,27.1-28.9,49.2-28.5
	c4.7,0.1,9.3,0,14,0c208.6,0,417.2,0,625.7,0c6,0,12,0.1,18,0.2c6.1,0.2,11.9,1.5,17.4,4c8,3.7,12.2,10,12.6,18.8
	c0.4,9-2.8,17-6.1,25c-17.2,42.6-34.5,85.2-51.7,127.8c-3.7,9.3-7.3,18.6-11.3,27.8c-8.3,19.1-23.1,28.6-43.7,29.3
	c-6,0.2-12,0.1-18,0.1c-127.3,0-254.6,0-381.8,0c-7.3,0-14.7,0.1-22,0.3c-12.4,0.4-22.1,5.8-27,17.3c-8.6,20.2-16.6,40.7-24.7,61.1
	c-0.7,1.8-1,3.9-1.2,5.9c-0.7,6.9,2.6,12.1,9.3,13.1c5.9,0.9,11.9,1.1,17.9,1.1c29.3,0.1,58.6,0.1,88,0.1c64,0,127.9,0.1,191.9,0
	c18.1,0,35.9,2.5,53.2,7.6c40,11.9,57.3,38.5,58.6,78.3c0.5,14.8-2.7,29.2-6.6,43.3c-3,10.9-6.4,21.8-10.6,32.3
	c-35.1,87.1-70.5,174.1-105.8,261.2c-12.3,30.2-24.3,60.6-36.8,90.7c-4.1,9.8-8.5,19.6-14,28.6c-9.4,15.1-23,23.7-41.5,23.1
	c-6.7-0.2-13.3,0-20,0C2147.3,1241.8,2042,1241.8,1936.7,1241.8z"/>
<path class="st1" d="M5552.9,1241.8c-30,0-60,0-89.9,0c-6,0-12.1,0-17.9-0.9c-12.3-2-18.3-9.8-18-22.4c0.1-7.5,2.8-14.3,5.5-21.1
	c12.6-31.5,25.2-63.1,37.9-94.6c10.2-25.3,20.6-50.6,30.9-75.9c2.5-6.2,5-12.4,7-18.7c2-6.2-0.8-10.3-7.6-11
	c-6.6-0.6-13.3-0.7-20-0.6c-23.3,0.2-46.6-0.1-69.8-3c-18.8-2.3-36.5-7.1-52.3-18.1c-8.4-5.9-15-13-19.7-22.1
	c-8.7-17.1-12.2-35.1-10.1-54.1c2.5-21.9,7.9-43.1,16.2-63.7c22.7-56.2,45-112.5,67.4-168.8c35.5-89.1,70.9-178.2,106.4-267.3
	c3-7.4,5.9-14.9,9-22.2c9.2-21.1,25.3-31.9,48.3-32.4c3.3-0.1,6.7-0.1,10-0.1c58,0,115.9,0,173.9,0c8,0,16-0.4,23.8,1.8
	c13.8,4,19.9,13.1,16.7,27.1c-2,9-5.4,17.8-8.8,26.5c-43,107.6-86.2,215.1-129.3,322.7c-3.2,8-6.5,16.1-9.1,24.3
	c-2.2,7,1.1,11.9,8.2,13c4.6,0.7,9.3,0.9,13.9,0.9c43.3,0.1,86.6-0.1,129.9,0.1c25.5,0.1,38.9-3.4,51.2-34.4
	c44.4-111.4,89.8-222.3,134.9-333.4c3-7.4,6.2-14.8,9.9-21.8c8.4-15.9,21.8-24.8,39.8-26.5c4.6-0.4,9.3-0.4,14-0.4
	c58.6,0,117.3,0,175.9,0c5.3,0,10.7-0.1,16,0.6c20.2,2.8,27.8,14,22.9,33.6c-1.5,5.8-3.7,11.4-5.9,17
	c-27.5,67.9-55,135.8-82.5,203.7c-33.8,83.3-67.7,166.6-101.6,249.9c-12.8,31.5-25.5,63-38.6,94.3c-4.1,9.8-8.8,19.4-14.2,28.6
	c-7.1,12.1-17.9,19.3-31.9,21.9c-9.9,1.8-19.8,2.3-29.8,2.3c-51.3,0-102.6,0-153.9,0c-25.5,0-25.5,0.1-34.9,23.5
	c-23.8,59.3-47.5,118.7-71.4,178c-2.5,6.2-5,12.4-8.2,18.2c-9.1,16.5-23.3,25.1-42.3,25.5c-4.7,0.1-9.3,0.1-14,0.1
	C5611.5,1241.8,5582.2,1241.8,5552.9,1241.8z"/>
<path class="st1" d="M675,344.7c102.6,0,205.2,0,307.9,0c10,0,20-0.4,29.8,2.4c14.9,4.4,20.8,13.7,17.4,28.5
	c-1.3,5.8-3.6,11.4-5.8,17c-19.1,47.6-38.3,95.1-57.6,142.7c-2.8,6.8-5.7,13.5-9.3,19.9c-7.8,13.7-19.7,21.4-35.6,22.3
	c-6.6,0.4-13.3,0.3-20,0.3c-118.6,0-237.2,0-355.9,0c-8,0-16-0.2-24,0.4c-20.2,1.4-34.3,9.9-42.3,30.4
	c-36.1,91.8-73.2,183.1-110,274.6c-12.9,32.1-25.5,64.4-39.1,96.3c-12.2,28.6-1.5,29.4,19.5,29.4c120-0.1,239.9,0,359.9,0
	c6.7,0,13.4-0.3,20,0.2c6.6,0.6,13.3,1.3,19.6,3.3c12.9,3.9,18.3,12.9,15.9,26c-0.9,5.2-2.7,10.3-4.7,15.3
	c-20.9,51.9-41.9,103.8-62.8,155.7c-9,22.4-25,33.7-49.4,32.7c-5.3-0.2-10.7,0-16,0c-169.9,0-339.9,0-509.8,0c-12,0-24,0.1-36-0.6
	c-18.9-1-36.7-6.4-52.9-16.4c-15.5-9.5-25.2-23.5-30-40.8c-4-14.3-4.6-28.8-2.5-43.6c3.7-25.3,12-49.2,21.5-72.7
	C69,952.9,115.5,838.1,161.8,723.2c37.8-93.9,75.4-187.9,113.2-281.9c7.2-17.9,14.6-35.8,21.9-53.6c1.8-4.3,3.8-8.5,6.1-12.6
	c11-19.6,27.1-30.7,50.2-30.3c6,0.1,12,0,18,0C472.4,344.7,573.7,344.7,675,344.7z"/>
<path class="st1" d="M7166,1244.4c-69.9,0-139.9-0.2-209.8,0.1c-17.4,0.1-34.5-2.3-51.7-4c-12-1.2-23.4-5.2-34.3-10.5
	c-22.7-11-35.5-29.4-39.7-54c-3-17.4-1.1-34.5,2.5-51.5c3.9-19,10.5-37.2,17.7-55.1c27.9-69.2,55.9-138.3,83.8-207.5
	c37.6-93.2,75.2-186.5,112.8-279.8c25.4-63,50.9-126,76.4-188.9c2.7-6.8,5.6-13.6,8.9-20.1c9.6-18.8,24.4-29.1,46.2-28.9
	c33.3,0.3,66.6,0,99.9,0c30,0,60-0.1,89.9,0.1c6.6,0,13.4,0.4,19.8,2.1c10.7,2.7,15.3,9.5,15.4,20.5c0.1,9.6-3.4,18.2-6.9,26.9
	c-12.9,32.1-25.8,64.3-38.8,96.4c-18,44.4-36.1,88.8-54.1,133.3c-47.1,116-94.3,231.9-141.4,347.9c-3,7.4-6.1,14.8-8.6,22.4
	c-2.5,7.9,0.8,13.1,9.1,14.2c7.2,0.9,14.6,1,21.9,1c92.6,0.1,185.2,0,277.8,0c10,0,20-0.3,29.8,1.9c3.9,0.9,7.9,1.6,11.5,3.1
	c8.8,3.6,13.7,11.1,12.7,20.5c-0.6,5.9-2.3,11.8-4.5,17.3c-20.7,52-41.6,103.8-62.5,155.7c-1.7,4.3-3.9,8.5-6.3,12.5
	c-6.4,10.8-15.8,17.8-28,21c-11,2.9-22.3,3.4-33.7,3.4C7309.9,1244.4,7238,1244.4,7166,1244.4z"/>
</svg>
