<svg width="17" height="15" viewBox="0 0 17 15" fill="none" xmlns="http://www.w3.org/2000/svg">
<path d="M8.16375 13.5C8.21375 13.5 8.26375 13.4875 8.31375 13.4625C8.36375 13.4375 8.40125 13.4125 8.42625 13.3875L14.5762 7.2375C14.7262 7.0875 14.8358 6.91875 14.9048 6.73125C14.9733 6.54375 15.0075 6.35625 15.0075 6.16875C15.0075 5.96875 14.9733 5.778 14.9048 5.5965C14.8358 5.4155 14.7262 5.25625 14.5762 5.11875L11.3887 1.93125C11.2512 1.78125 11.092 1.67175 10.911 1.60275C10.7295 1.53425 10.5387 1.5 10.3387 1.5C10.1512 1.5 9.96375 1.53425 9.77625 1.60275C9.58875 1.67175 9.42 1.78125 9.27 1.93125L9.06375 2.1375L10.4513 3.54375C10.6388 3.71875 10.7763 3.91875 10.8638 4.14375C10.9513 4.36875 10.995 4.60625 10.995 4.85625C10.995 5.38125 10.817 5.82175 10.461 6.17775C10.1045 6.53425 9.66375 6.7125 9.13875 6.7125C8.88875 6.7125 8.64825 6.66875 8.41725 6.58125C8.18575 6.49375 7.9825 6.3625 7.8075 6.1875L6.40125 4.8L3.12 8.08125C3.0825 8.11875 3.05425 8.1595 3.03525 8.2035C3.01675 8.247 3.0075 8.29375 3.0075 8.34375C3.0075 8.44375 3.045 8.53425 3.12 8.61525C3.195 8.69675 3.2825 8.7375 3.3825 8.7375C3.4325 8.7375 3.4825 8.725 3.5325 8.7C3.5825 8.675 3.62 8.65 3.645 8.625L6.195 6.075L7.245 7.125L4.71375 9.675C4.67625 9.7125 4.648 9.753 4.629 9.7965C4.6105 9.8405 4.60125 9.8875 4.60125 9.9375C4.60125 10.0375 4.63875 10.125 4.71375 10.2C4.78875 10.275 4.87625 10.3125 4.97625 10.3125C5.02625 10.3125 5.07625 10.3 5.12625 10.275C5.17625 10.25 5.21375 10.225 5.23875 10.2L7.78875 7.66875L8.83875 8.71875L6.3075 11.2687C6.27 11.2937 6.242 11.3312 6.2235 11.3812C6.2045 11.4312 6.195 11.4812 6.195 11.5312C6.195 11.6313 6.2325 11.7188 6.3075 11.7938C6.3825 11.8688 6.47 11.9062 6.57 11.9062C6.62 11.9062 6.667 11.8967 6.711 11.8777C6.7545 11.8592 6.795 11.8313 6.8325 11.7938L9.3825 9.2625L10.4325 10.3125L7.8825 12.8625C7.845 12.9 7.817 12.9405 7.7985 12.984C7.7795 13.028 7.77 13.075 7.77 13.125C7.77 13.225 7.81075 13.3125 7.89225 13.3875C7.97325 13.4625 8.06375 13.5 8.16375 13.5V13.5ZM8.145 15C7.6825 15 7.27325 14.8467 6.91725 14.5402C6.56075 14.2342 6.35125 13.85 6.28875 13.3875C5.86375 13.325 5.5075 13.15 5.22 12.8625C4.9325 12.575 4.7575 12.2188 4.695 11.7938C4.27 11.7313 3.917 11.5533 3.636 11.2598C3.3545 10.9658 3.1825 10.6125 3.12 10.2C2.645 10.1375 2.2575 9.93125 1.9575 9.58125C1.6575 9.23125 1.5075 8.81875 1.5075 8.34375C1.5075 8.09375 1.5545 7.853 1.6485 7.6215C1.742 7.3905 1.87625 7.1875 2.05125 7.0125L6.40125 2.68125L8.8575 5.1375C8.8825 5.175 8.92 5.203 8.97 5.2215C9.02 5.2405 9.07 5.25 9.12 5.25C9.2325 5.25 9.32625 5.21575 9.40125 5.14725C9.47625 5.07825 9.51375 4.9875 9.51375 4.875C9.51375 4.825 9.5045 4.775 9.486 4.725C9.467 4.675 9.43875 4.6375 9.40125 4.6125L6.72 1.93125C6.5825 1.78125 6.423 1.67175 6.2415 1.60275C6.0605 1.53425 5.87 1.5 5.67 1.5C5.4825 1.5 5.295 1.53425 5.1075 1.60275C4.92 1.67175 4.75125 1.78125 4.60125 1.93125L1.9575 4.59375C1.845 4.70625 1.75125 4.8375 1.67625 4.9875C1.60125 5.1375 1.55125 5.2875 1.52625 5.4375C1.50125 5.5875 1.50125 5.7405 1.52625 5.8965C1.55125 6.053 1.60125 6.2 1.67625 6.3375L0.58875 7.425C0.37625 7.1375 0.22 6.82175 0.12 6.47775C0.02 6.13425 -0.0175 5.7875 0.0075 5.4375C0.0325 5.0875 0.12 4.74675 0.27 4.41525C0.42 4.08425 0.62625 3.7875 0.88875 3.525L3.5325 0.88125C3.8325 0.59375 4.167 0.375 4.536 0.225C4.9045 0.075 5.2825 0 5.67 0C6.0575 0 6.4355 0.075 6.804 0.225C7.173 0.375 7.50125 0.59375 7.78875 0.88125L7.995 1.0875L8.20125 0.88125C8.50125 0.59375 8.8355 0.375 9.204 0.225C9.573 0.075 9.95125 0 10.3387 0C10.7262 0 11.1045 0.075 11.4735 0.225C11.842 0.375 12.17 0.59375 12.4575 0.88125L15.6263 4.05C15.9138 4.3375 16.1325 4.66875 16.2825 5.04375C16.4325 5.41875 16.5075 5.8 16.5075 6.1875C16.5075 6.575 16.4325 6.953 16.2825 7.3215C16.1325 7.6905 15.9138 8.01875 15.6263 8.30625L9.47625 14.4375C9.30125 14.6125 9.098 14.75 8.8665 14.85C8.6355 14.95 8.395 15 8.145 15Z" fill="white"/>
</svg>
