<svg width="18" height="18" viewBox="0 0 18 18" fill="none" xmlns="http://www.w3.org/2000/svg">
<path d="M13.0901 9.9C13.7649 9.9 14.3587 9.531 14.6646 8.973L17.8854 3.132C18.2182 2.538 17.7864 1.8 17.1026 1.8H3.78759L2.94191 0H0V1.8H1.79933L5.03813 8.631L3.82358 10.827C3.16682 12.033 4.0305 13.5 5.398 13.5H16.194V11.7H5.398L6.38763 9.9H13.0901ZM4.64228 3.6H15.5732L13.0901 8.1H6.77448L4.64228 3.6ZM5.398 14.4C4.40836 14.4 3.60766 15.21 3.60766 16.2C3.60766 17.19 4.40836 18 5.398 18C6.38763 18 7.19733 17.19 7.19733 16.2C7.19733 15.21 6.38763 14.4 5.398 14.4ZM14.3947 14.4C13.405 14.4 12.6043 15.21 12.6043 16.2C12.6043 17.19 13.405 18 14.3947 18C15.3843 18 16.194 17.19 16.194 16.2C16.194 15.21 15.3843 14.4 14.3947 14.4Z" fill="#2B568E"/>
</svg>
