<svg width="133" height="105" viewBox="0 0 133 105" fill="none" xmlns="http://www.w3.org/2000/svg">
<path fill-rule="evenodd" clip-rule="evenodd" d="M0 9C0 4.02944 4.58047 0 10.2308 0H122.769C128.42 0 133 4.02944 133 9C133 13.9706 128.42 18 122.769 18H10.2308C4.58047 18 0 13.9706 0 9Z" fill="white"/>
<path fill-rule="evenodd" clip-rule="evenodd" d="M0 52.5C0 47.2533 4.58047 43 10.2308 43H122.769C128.42 43 133 47.2533 133 52.5C133 57.7467 128.42 62 122.769 62H10.2308C4.58047 62 0 57.7467 0 52.5Z" fill="white"/>
<path fill-rule="evenodd" clip-rule="evenodd" d="M0 95C0 89.4772 4.58047 85 10.2308 85H122.769C128.42 85 133 89.4772 133 95C133 100.523 128.42 105 122.769 105H10.2308C4.58047 105 0 100.523 0 95Z" fill="white"/>
</svg>
