<svg width="12" height="17" viewBox="0 0 12 17" fill="none" xmlns="http://www.w3.org/2000/svg">
<path d="M5.83333 1.66667C7.44167 1.66667 10 2.83333 10 5.95833C10 7.75833 8.56667 9.85 5.83333 12.0583C3.1 9.85 1.66667 7.75 1.66667 5.95833C1.66667 2.83333 4.225 1.66667 5.83333 1.66667ZM5.83333 0C3.10833 0 0 2.05 0 5.95833C0 8.55833 1.94167 11.3 5.83333 14.1667C9.725 11.3 11.6667 8.55833 11.6667 5.95833C11.6667 2.05 8.55833 0 5.83333 0Z" fill="#2B568E"/>
<path d="M5.83333 4.16699C4.91667 4.16699 4.16667 4.91699 4.16667 5.83366C4.16667 6.75033 4.91667 7.50033 5.83333 7.50033C6.27536 7.50033 6.69928 7.32473 7.01184 7.01217C7.3244 6.69961 7.5 6.27569 7.5 5.83366C7.5 5.39163 7.3244 4.96771 7.01184 4.65515C6.69928 4.34259 6.27536 4.16699 5.83333 4.16699V4.16699ZM0 15.0003H11.6667V16.667H0V15.0003Z" fill="#2B568E"/>
</svg>
