<svg width="15" height="13" viewBox="0 0 15 13" fill="none" xmlns="http://www.w3.org/2000/svg">
<path d="M14.3683 4.25389L13.61 1.09778C13.4511 0.447778 12.8878 0 12.2306 0H2.1989C1.5489 0 0.978348 0.455 0.826681 1.09778L0.0683479 4.25389C-0.104985 4.99056 0.0539035 5.74167 0.516126 6.33389C0.573903 6.41333 0.653348 6.47111 0.718348 6.54333V11.5556C0.718348 12.35 1.36835 13 2.16279 13H12.2739C13.0683 13 13.7183 12.35 13.7183 11.5556V6.54333C13.7833 6.47833 13.8628 6.41333 13.9206 6.34111C14.3828 5.74889 14.5489 4.99056 14.3683 4.25389ZM12.2089 1.43722L12.9672 4.59333C13.0395 4.89667 12.9745 5.2 12.7867 5.43833C12.6856 5.56833 12.4689 5.77778 12.1078 5.77778C11.6672 5.77778 11.2845 5.42389 11.2339 4.95444L10.815 1.44444L12.2089 1.43722ZM7.94057 1.44444H9.35613L9.74613 4.70889C9.78224 4.99056 9.69557 5.27222 9.50779 5.48167C9.3489 5.66944 9.11779 5.77778 8.82168 5.77778C8.33779 5.77778 7.94057 5.35167 7.94057 4.83167V1.44444ZM4.68335 4.70889L5.08057 1.44444H6.49613V4.83167C6.49613 5.35167 6.0989 5.77778 5.56446 5.77778C5.3189 5.77778 5.09501 5.66944 4.92168 5.48167C4.74113 5.27222 4.65446 4.99056 4.68335 4.70889ZM1.46946 4.59333L2.1989 1.44444H3.62168L3.20279 4.95444C3.14501 5.42389 2.76946 5.77778 2.3289 5.77778C1.97501 5.77778 1.75113 5.56833 1.65724 5.43833C1.46224 5.20722 1.39724 4.89667 1.46946 4.59333ZM2.16279 11.5556V7.20056C2.22057 7.20778 2.27113 7.22222 2.3289 7.22222C2.95724 7.22222 3.52779 6.96222 3.94668 6.53611C4.38001 6.96944 4.95779 7.22222 5.61501 7.22222C6.24335 7.22222 6.80668 6.96222 7.22557 6.55056C7.65168 6.96222 8.22946 7.22222 8.87946 7.22222C9.48613 7.22222 10.0639 6.96944 10.4972 6.53611C10.9161 6.96222 11.4867 7.22222 12.115 7.22222C12.1728 7.22222 12.2233 7.20778 12.2811 7.20056V11.5556H2.16279Z" fill="white"/>
</svg>
