<svg width="18" height="15" viewBox="0 0 18 15" fill="none" xmlns="http://www.w3.org/2000/svg">
<path d="M17.627 7.24435L17.6269 7.24415L15.8504 3.09894C15.8504 3.09887 15.8503 3.09879 15.8503 3.09872C15.7973 2.9737 15.7087 2.86702 15.5955 2.79198C15.4823 2.71689 15.3494 2.6768 15.2136 2.67668H15.2135H13.5368V1.59223C13.5368 1.40864 13.4639 1.23257 13.334 1.10275C13.2042 0.972931 13.0282 0.9 12.8446 0.9H1.59223C1.40864 0.9 1.23257 0.972931 1.10275 1.10275C0.972931 1.23257 0.9 1.40864 0.9 1.59223V11.6601C0.9 11.8437 0.972931 12.0198 1.10275 12.1496C1.23257 12.2794 1.40864 12.3523 1.59223 12.3523H2.78438C2.93485 12.8449 3.23589 13.2789 3.6461 13.5925C4.07668 13.9217 4.60361 14.1 5.1456 14.1C5.68759 14.1 6.21452 13.9217 6.64509 13.5925C7.05531 13.2789 7.35635 12.8449 7.50681 12.3523H11.0756C11.226 12.8449 11.5271 13.2789 11.9373 13.5925C12.3679 13.9217 12.8948 14.1 13.4368 14.1C13.9788 14.1 14.5057 13.9217 14.9363 13.5925C15.3465 13.2789 15.6475 12.8449 15.798 12.3523H16.9902C17.1737 12.3523 17.3498 12.2794 17.4796 12.1496C17.6095 12.0198 17.6824 11.8437 17.6824 11.6601L17.6824 7.51451L17.6824 7.51432C17.6822 7.42153 17.6634 7.32972 17.627 7.24435ZM13.5368 4.06114H14.7566L15.9384 6.82228H13.5368V4.06114ZM5.1456 12.7446C4.93111 12.7446 4.72144 12.681 4.54311 12.5618C4.36477 12.4426 4.22577 12.2733 4.14369 12.0751C4.06161 11.877 4.04013 11.6589 4.08198 11.4485C4.12382 11.2382 4.22711 11.0449 4.37877 10.8933C4.53043 10.7416 4.72367 10.6383 4.93403 10.5965C5.14439 10.5546 5.36244 10.5761 5.5606 10.6582C5.75876 10.7403 5.92813 10.8793 6.04729 11.0576C6.16645 11.236 6.23005 11.4456 6.23005 11.6601C6.23005 11.9477 6.1158 12.2236 5.91242 12.4269C5.70905 12.6303 5.43321 12.7446 5.1456 12.7446ZM11.478 10.1749C11.2966 10.4128 11.1601 10.6815 11.075 10.9679H7.50681C7.35635 10.4753 7.05531 10.0414 6.64509 9.72774C6.21452 9.39856 5.68759 9.22021 5.1456 9.22021C4.60361 9.22021 4.07668 9.39856 3.6461 9.72774C3.23589 10.0414 2.93485 10.4753 2.78438 10.9679H2.28446V2.28446H12.1523V9.56604C11.892 9.72545 11.6633 9.93186 11.478 10.1749ZM13.4368 12.7446C13.2223 12.7446 13.0126 12.681 12.8343 12.5618C12.656 12.4426 12.517 12.2733 12.4349 12.0751C12.3528 11.877 12.3313 11.6589 12.3732 11.4485C12.415 11.2382 12.5183 11.0449 12.67 10.8933C12.8216 10.7416 13.0149 10.6383 13.2252 10.5965C13.4356 10.5546 13.6536 10.5761 13.8518 10.6582C14.05 10.7403 14.2193 10.8793 14.3385 11.0576C14.4576 11.236 14.5212 11.4456 14.5212 11.6601C14.5212 11.9477 14.407 12.2236 14.2036 12.4269C14.0002 12.6303 13.7244 12.7446 13.4368 12.7446ZM16.2979 10.9679H15.799C15.6536 10.47 15.3548 10.0298 14.9442 9.71071C14.5394 9.39609 14.0474 9.21581 13.5368 9.19353V8.20674H16.2979V10.9679Z" fill="white" stroke="white" stroke-width="0.2"/>
</svg>
